Coordinates
version=1
nRows=10
nColumns=40
inDegrees=yes

Units are S.I. units (second, meters, Newtons, ...)
Angles are in degrees.

endheader
time	pelvis_tilt	pelvis_list	pelvis_rotation	pelvis_tx	pelvis_ty	pelvis_tz	hip_flexion_r	hip_adduction_r	hip_rotation_r	knee_angle_r	knee_angle_r_beta	ankle_angle_r	subtalar_angle_r	mtp_angle_r	hip_flexion_l	hip_adduction_l	hip_rotation_l	knee_angle_l	knee_angle_l_beta	ankle_angle_l	subtalar_angle_l	mtp_angle_l	lumbar_extension	lumbar_bending	lumbar_rotation	arm_flex_r	arm_add_r	arm_rot_r	elbow_flex_r	pro_sup_r	wrist_flex_r	wrist_dev_r	arm_flex_l	arm_add_l	arm_rot_l	elbow_flex_l	pro_sup_l	wrist_flex_l	wrist_dev_l
      1.01000000	     -3.60730556	     -1.77952100	     -3.31730742	      0.29827722	      0.87882428	     -1.45406274	     -7.56374474	      1.87854511	    -10.67087274	    -20.22386215	     -0.35297298	      8.41134551	      6.18616099	    -12.17047869	     34.92246625	      9.35679403	     15.26557679	    -23.20807041	     -0.40505724	      4.92563602	      7.61334914	     -2.45961249	     -2.33288544	      0.78203859	      1.84385507	     -7.16000370	    -12.13945880	     -5.15723355	     67.05230467	     89.95437384	      0.00000000	      0.00000000	    -19.56245017	      7.38339079	     17.13481237	     34.18522523	     89.95437384	      0.00000000	      0.00000000
      1.02000000	     -3.79972392	     -1.76347754	     -3.52126906	      0.31208659	      0.87683796	     -1.45484416	     -7.96218244	      1.65304300	    -10.29019517	    -20.80458761	     -0.36310855	      8.04689075	      6.05836105	    -11.96260731	     35.40860195	      9.38696832	     15.44798210	    -22.73345658	     -0.39677367	      4.98164528	      7.27181249	     -2.45716352	     -2.02593696	      0.67920057	      1.88472970	     -7.36611437	    -12.22635567	     -4.93517987	     67.75736767	     89.95437384	      0.00000000	      0.00000000	    -19.93530324	      7.31538361	     17.15096117	     33.80849808	     89.95437384	      0.00000000	      0.00000000
      1.03000000	     -3.88223456	     -1.72227230	     -3.76621550	      0.32641102	      0.87499042	     -1.45536668	     -8.46724594	      1.37773211	    -10.00338782	    -21.45217261	     -0.37441104	      7.71905936	      5.87249163	    -11.72139297	     35.76905519	      9.38947969	     15.14213696	    -22.87352259	     -0.39921828	      4.84529976	      7.03288285	     -2.41053750	     -1.74450285	      0.49177397	      1.89023979	     -7.48587374	    -12.12899579	     -4.82420147	     68.01834771	     89.95437384	      0.00000000	      0.00000000	    -20.42035063	      7.29183005	     17.12859205	     33.63272867	     89.95437384	      0.00000000	      0.00000000
      1.04000000	     -3.75568461	     -1.45278080	     -4.88097349	      0.34071380	      0.87363203	     -1.45518645	     -8.78311571	      0.69396242	     -8.48054592	    -22.70516711	     -0.39627992	      6.76730992	      5.63114057	    -11.41334961	     35.37896974	      9.54245575	     15.52969721	    -22.93146736	     -0.40022961	      5.48434696	      7.25888506	     -2.38827225	     -1.74472023	      0.13754483	      2.87321327	     -7.81196415	    -12.36647947	     -4.43443548	     68.61254975	     89.95437384	      0.00000000	      0.00000000	    -20.28655298	      7.10498320	     17.54835424	     32.66026866	     89.95437384	      0.00000000	      0.00000000
      1.05000000	     -3.78901997	     -1.37426166	     -5.12542149	      0.35595935	      0.87173982	     -1.45563517	     -9.25077052	      0.37989138	     -8.05020195	    -23.53583826	     -0.41077787	      6.33733124	      5.40527686	    -11.12941738	     35.37719143	      9.43287709	     14.97610080	    -23.48591420	     -0.40990653	      5.25108161	      7.10251137	     -2.31684074	     -1.39808474	     -0.07966792	      2.84422547	     -8.12443669	    -12.22549016	     -4.30105426	     68.73246975	     89.95437384	      0.00000000	      0.00000000	    -20.76863184	      7.11140916	     17.53734992	     32.56834593	     89.95437384	      0.00000000	      0.00000000
      1.06000000	     -3.51991377	     -1.17899056	     -5.96775513	      0.37037385	      0.87038590	     -1.45578576	     -9.61624120	     -0.01678172	     -6.07773742	    -24.91128678	     -0.43478398	      5.06522792	      3.61615617	    -10.54521385	     34.94235444	      9.14365294	     13.81634659	    -24.46988158	     -0.42708000	      5.85876112	     10.61053640	     -1.60841247	     -1.56582956	     -0.40269464	      3.46810068	     -8.36516569	    -12.34226362	     -4.04473557	     68.93216224	     89.95437384	      0.00000000	      0.00000000	    -20.65091271	      6.95141375	     18.00362257	     31.96239648	     89.95437384	      0.00000000	      0.00000000
      1.07000000	     -3.42655735	     -1.07107136	     -6.34358645	      0.38551778	      0.86862148	     -1.45630663	     -9.87392978	     -0.33202178	     -5.14003273	    -26.23490233	     -0.45788542	      3.80589794	      2.60151144	     -9.98971020	     34.72144077	      8.79560133	     12.58689828	    -25.64721906	     -0.44762842	      5.44056481	     12.42119294	     -0.95446746	     -1.42051852	     -0.64737518	      3.55958838	     -8.69360658	    -12.28013944	     -3.87835925	     68.90404730	     89.95437384	      0.00000000	      0.00000000	    -20.84224481	      6.93367526	     18.06809928	     31.74050180	     89.95437384	      0.00000000	      0.00000000
      1.08000000	     -3.18131069	     -1.03059138	     -6.55726820	      0.40112971	      0.86688262	     -1.45706509	    -10.22112257	     -0.65086182	     -4.75163411	    -27.74048366	     -0.48416278	      2.60823562	      2.20395864	     -9.54012336	     34.38427320	      8.62444721	     12.25189818	    -26.96324373	     -0.47059738	      3.90808655	     12.77752084	     -0.57439463	     -1.40933600	     -0.83639426	      3.42951724	     -9.05053664	    -12.25740504	     -3.64722267	     68.78508481	     89.95437384	      0.00000000	      0.00000000	    -21.09157835	      6.93692968	     18.03759717	     31.70261769	     89.95437384	      0.00000000	      0.00000000
      1.09000000	     -3.03774069	     -0.81997748	     -6.74427783	      0.41624961	      0.86516550	     -1.45800177	    -10.22692824	     -1.14106012	     -4.49326356	    -29.47973247	     -0.51451839	      0.91441203	      1.45976476	     -8.95668046	     34.26217044	      8.35121734	     11.95440623	    -28.41355616	     -0.49591011	      1.77545544	     13.31399874	     -0.07965720	     -1.32822485	     -1.22155780	      3.26236303	     -9.32959938	    -12.15591878	     -3.49862985	     68.44716035	     89.95437384	      0.00000000	      0.00000000	    -21.17497739	      6.95799427	     18.09752575	     31.60065829	     89.95437384	      0.00000000	      0.00000000
      1.10000000	     -3.23144164	     -0.35591817	     -6.71374781	      0.43086062	      0.86330510	     -1.45982674	     -9.51879208	     -1.83297851	     -4.33934203	    -31.65114460	     -0.55241669	     -1.52173079	     -0.22204071	     -8.02993390	     34.58649707	      7.60387234	     11.01234896	    -29.95121067	     -0.52274724	      0.94321782	     13.53063711	      0.45841390	     -0.86188691	     -1.81317188	      2.86086642	     -9.52693956	    -12.02482359	     -3.35825865	     67.70532239	     89.95437384	      0.00000000	      0.00000000	    -21.06446242	      6.89760780	     18.46152683	     31.32476814	     89.95437384	      0.00000000	      0.00000000
